<mxfile host="app.diagrams.net" modified="2023-10-04T16:11:48.069Z" agent="Mozilla/5.0 (X11; Ubuntu; Linux x86_64; rv:109.0) Gecko/20100101 Firefox/118.0" etag="7oaJJAJjHB_voTeKIe4x" version="22.0.2" type="github">
  <diagram id="C5RBs43oDa-KdzZeNtuy" name="Page-1">
    <mxGraphModel dx="650" dy="379" grid="1" gridSize="10" guides="1" tooltips="1" connect="1" arrows="1" fold="1" page="1" pageScale="1" pageWidth="827" pageHeight="1169" math="0" shadow="0">
      <root>
        <mxCell id="WIyWlLk6GJQsqaUBKTNV-0" />
        <mxCell id="WIyWlLk6GJQsqaUBKTNV-1" parent="WIyWlLk6GJQsqaUBKTNV-0" />
        <mxCell id="WIyWlLk6GJQsqaUBKTNV-3" value="&lt;div&gt;Jenkins+Ansible Server&lt;/div&gt;" style="rounded=1;whiteSpace=wrap;html=1;fontSize=12;glass=0;strokeWidth=1;shadow=0;" parent="WIyWlLk6GJQsqaUBKTNV-1" vertex="1">
          <mxGeometry x="544" y="295" width="120" height="40" as="geometry" />
        </mxCell>
        <mxCell id="WIyWlLk6GJQsqaUBKTNV-11" value="&lt;div&gt;Prod env&lt;/div&gt;&lt;div&gt;Docker img&lt;/div&gt;&lt;div&gt;nginx+PostgreSQL&lt;br&gt;&lt;/div&gt;" style="rounded=1;whiteSpace=wrap;html=1;fontSize=12;glass=0;strokeWidth=1;shadow=0;" parent="WIyWlLk6GJQsqaUBKTNV-1" vertex="1">
          <mxGeometry x="680" y="430" width="120" height="50" as="geometry" />
        </mxCell>
        <mxCell id="q56kLn3UeSaLMW3TXKS6-0" value="GitHub repo" style="rounded=1;whiteSpace=wrap;html=1;fontSize=12;glass=0;strokeWidth=1;shadow=0;" parent="WIyWlLk6GJQsqaUBKTNV-1" vertex="1">
          <mxGeometry x="544" y="190" width="120" height="40" as="geometry" />
        </mxCell>
        <mxCell id="q56kLn3UeSaLMW3TXKS6-1" value="Developers" style="rounded=1;whiteSpace=wrap;html=1;fontSize=12;glass=0;strokeWidth=1;shadow=0;" parent="WIyWlLk6GJQsqaUBKTNV-1" vertex="1">
          <mxGeometry x="544" y="80" width="120" height="40" as="geometry" />
        </mxCell>
        <mxCell id="q56kLn3UeSaLMW3TXKS6-3" value="" style="endArrow=classic;html=1;rounded=0;" parent="WIyWlLk6GJQsqaUBKTNV-1" source="q56kLn3UeSaLMW3TXKS6-1" target="q56kLn3UeSaLMW3TXKS6-0" edge="1">
          <mxGeometry width="50" height="50" relative="1" as="geometry">
            <mxPoint x="554" y="220" as="sourcePoint" />
            <mxPoint x="474" y="220" as="targetPoint" />
          </mxGeometry>
        </mxCell>
        <mxCell id="q56kLn3UeSaLMW3TXKS6-4" value="&lt;div&gt;git commit&lt;/div&gt;" style="text;html=1;align=center;verticalAlign=middle;resizable=0;points=[];autosize=1;strokeColor=none;fillColor=none;" parent="WIyWlLk6GJQsqaUBKTNV-1" vertex="1">
          <mxGeometry x="604" y="140" width="80" height="30" as="geometry" />
        </mxCell>
        <mxCell id="q56kLn3UeSaLMW3TXKS6-5" value="&lt;div&gt;WebHook Dev Deployment&lt;br&gt;&lt;/div&gt;" style="text;html=1;align=center;verticalAlign=middle;resizable=0;points=[];autosize=1;strokeColor=none;fillColor=none;rotation=0;" parent="WIyWlLk6GJQsqaUBKTNV-1" vertex="1">
          <mxGeometry x="510" y="240" width="170" height="30" as="geometry" />
        </mxCell>
        <mxCell id="q56kLn3UeSaLMW3TXKS6-6" value="" style="endArrow=classic;startArrow=classic;html=1;rounded=0;" parent="WIyWlLk6GJQsqaUBKTNV-1" source="WIyWlLk6GJQsqaUBKTNV-3" target="q56kLn3UeSaLMW3TXKS6-0" edge="1">
          <mxGeometry width="50" height="50" relative="1" as="geometry">
            <mxPoint x="514" y="230" as="sourcePoint" />
            <mxPoint x="564" y="180" as="targetPoint" />
          </mxGeometry>
        </mxCell>
        <mxCell id="q56kLn3UeSaLMW3TXKS6-7" value="Dev env&lt;br&gt;Docker img nginx+PostgreSQL" style="rounded=1;whiteSpace=wrap;html=1;fontSize=12;glass=0;strokeWidth=1;shadow=0;" parent="WIyWlLk6GJQsqaUBKTNV-1" vertex="1">
          <mxGeometry x="414" y="430" width="120" height="50" as="geometry" />
        </mxCell>
        <mxCell id="q56kLn3UeSaLMW3TXKS6-8" value="Ansible playbook with 3 roles via Jenkins job&lt;br&gt;" style="text;html=1;align=center;verticalAlign=middle;resizable=0;points=[];autosize=1;strokeColor=none;fillColor=none;" parent="WIyWlLk6GJQsqaUBKTNV-1" vertex="1">
          <mxGeometry x="370" y="380" width="260" height="30" as="geometry" />
        </mxCell>
        <mxCell id="q56kLn3UeSaLMW3TXKS6-9" value="" style="endArrow=classic;html=1;rounded=0;" parent="WIyWlLk6GJQsqaUBKTNV-1" source="WIyWlLk6GJQsqaUBKTNV-3" target="q56kLn3UeSaLMW3TXKS6-1" edge="1">
          <mxGeometry width="50" height="50" relative="1" as="geometry">
            <mxPoint x="514" y="260" as="sourcePoint" />
            <mxPoint x="564" y="210" as="targetPoint" />
            <Array as="points">
              <mxPoint x="404" y="315" />
              <mxPoint x="404" y="100" />
            </Array>
          </mxGeometry>
        </mxCell>
        <mxCell id="q56kLn3UeSaLMW3TXKS6-10" value="&lt;div&gt;Error if job failed(Playbook failed) e-mail&lt;br&gt;&lt;/div&gt;" style="text;html=1;align=center;verticalAlign=middle;resizable=0;points=[];autosize=1;strokeColor=none;fillColor=none;" parent="WIyWlLk6GJQsqaUBKTNV-1" vertex="1">
          <mxGeometry x="314" y="70" width="240" height="30" as="geometry" />
        </mxCell>
        <mxCell id="COT2bdgGY7GaAawzTkY8-2" value="&lt;div&gt;Monitoring server&lt;/div&gt;&lt;div&gt;Grafana + Prometheus + Alert Manager&lt;br&gt;&lt;/div&gt;" style="rounded=1;whiteSpace=wrap;html=1;fontSize=12;glass=0;strokeWidth=1;shadow=0;" parent="WIyWlLk6GJQsqaUBKTNV-1" vertex="1">
          <mxGeometry x="544" y="534" width="120" height="66" as="geometry" />
        </mxCell>
        <mxCell id="7B2e6sJQHzPaA60l6zBj-2" value="" style="endArrow=classic;html=1;rounded=0;exitX=0.5;exitY=1;exitDx=0;exitDy=0;entryX=0.5;entryY=0;entryDx=0;entryDy=0;" edge="1" parent="WIyWlLk6GJQsqaUBKTNV-1" source="WIyWlLk6GJQsqaUBKTNV-3" target="q56kLn3UeSaLMW3TXKS6-7">
          <mxGeometry width="50" height="50" relative="1" as="geometry">
            <mxPoint x="580" y="310" as="sourcePoint" />
            <mxPoint x="630" y="260" as="targetPoint" />
          </mxGeometry>
        </mxCell>
        <mxCell id="7B2e6sJQHzPaA60l6zBj-5" value="&lt;div&gt;?jmeter&lt;/div&gt;&amp;nbsp;test" style="text;html=1;align=center;verticalAlign=middle;resizable=0;points=[];autosize=1;strokeColor=none;fillColor=none;" vertex="1" parent="WIyWlLk6GJQsqaUBKTNV-1">
          <mxGeometry x="780" y="534" width="60" height="40" as="geometry" />
        </mxCell>
        <mxCell id="7B2e6sJQHzPaA60l6zBj-6" value="" style="endArrow=classic;html=1;rounded=0;exitX=0;exitY=0.5;exitDx=0;exitDy=0;entryX=0.5;entryY=1;entryDx=0;entryDy=0;" edge="1" parent="WIyWlLk6GJQsqaUBKTNV-1" source="COT2bdgGY7GaAawzTkY8-2" target="q56kLn3UeSaLMW3TXKS6-7">
          <mxGeometry width="50" height="50" relative="1" as="geometry">
            <mxPoint x="510" y="500" as="sourcePoint" />
            <mxPoint x="560" y="450" as="targetPoint" />
          </mxGeometry>
        </mxCell>
        <mxCell id="7B2e6sJQHzPaA60l6zBj-8" value="" style="endArrow=classic;html=1;rounded=0;entryX=0.5;entryY=0;entryDx=0;entryDy=0;exitX=0.75;exitY=1;exitDx=0;exitDy=0;" edge="1" parent="WIyWlLk6GJQsqaUBKTNV-1" source="WIyWlLk6GJQsqaUBKTNV-3" target="WIyWlLk6GJQsqaUBKTNV-11">
          <mxGeometry width="50" height="50" relative="1" as="geometry">
            <mxPoint x="580" y="460" as="sourcePoint" />
            <mxPoint x="630" y="410" as="targetPoint" />
          </mxGeometry>
        </mxCell>
        <mxCell id="7B2e6sJQHzPaA60l6zBj-9" value="Manual Run Jenkins job" style="text;html=1;align=center;verticalAlign=middle;resizable=0;points=[];autosize=1;strokeColor=none;fillColor=none;" vertex="1" parent="WIyWlLk6GJQsqaUBKTNV-1">
          <mxGeometry x="640" y="340" width="150" height="30" as="geometry" />
        </mxCell>
        <mxCell id="7B2e6sJQHzPaA60l6zBj-10" value="" style="endArrow=classic;html=1;rounded=0;entryX=0.5;entryY=1;entryDx=0;entryDy=0;exitX=1;exitY=0.5;exitDx=0;exitDy=0;" edge="1" parent="WIyWlLk6GJQsqaUBKTNV-1" source="COT2bdgGY7GaAawzTkY8-2" target="WIyWlLk6GJQsqaUBKTNV-11">
          <mxGeometry width="50" height="50" relative="1" as="geometry">
            <mxPoint x="470" y="500" as="sourcePoint" />
            <mxPoint x="520" y="450" as="targetPoint" />
          </mxGeometry>
        </mxCell>
        <mxCell id="7B2e6sJQHzPaA60l6zBj-11" value="Prometheus&lt;br&gt;1.Response code 200(BlackBox)&lt;br&gt;2.HTTP/TCP Probs Duration(BlackBox)&lt;br&gt;3.SSL Expired check (BlackBox)&lt;br&gt;4.CPU/RAM Load(Node Exporter)&lt;br&gt;5.DNS Resloving(BlackBox)" style="text;html=1;align=center;verticalAlign=middle;resizable=0;points=[];autosize=1;strokeColor=none;fillColor=none;" vertex="1" parent="WIyWlLk6GJQsqaUBKTNV-1">
          <mxGeometry x="610" y="605" width="230" height="100" as="geometry" />
        </mxCell>
        <mxCell id="7B2e6sJQHzPaA60l6zBj-12" value="Grafana&lt;br&gt;1.Prometheus Black box exporter dashboard" style="text;html=1;align=center;verticalAlign=middle;resizable=0;points=[];autosize=1;strokeColor=none;fillColor=none;" vertex="1" parent="WIyWlLk6GJQsqaUBKTNV-1">
          <mxGeometry x="360" y="605" width="260" height="40" as="geometry" />
        </mxCell>
        <mxCell id="7B2e6sJQHzPaA60l6zBj-13" value="SysOps" style="rounded=1;whiteSpace=wrap;html=1;" vertex="1" parent="WIyWlLk6GJQsqaUBKTNV-1">
          <mxGeometry x="250" y="537" width="120" height="60" as="geometry" />
        </mxCell>
        <mxCell id="7B2e6sJQHzPaA60l6zBj-14" value="" style="endArrow=classic;html=1;rounded=0;exitX=0;exitY=0.5;exitDx=0;exitDy=0;entryX=1;entryY=0.5;entryDx=0;entryDy=0;" edge="1" parent="WIyWlLk6GJQsqaUBKTNV-1" source="COT2bdgGY7GaAawzTkY8-2" target="7B2e6sJQHzPaA60l6zBj-13">
          <mxGeometry width="50" height="50" relative="1" as="geometry">
            <mxPoint x="450" y="550" as="sourcePoint" />
            <mxPoint x="500" y="500" as="targetPoint" />
          </mxGeometry>
        </mxCell>
        <mxCell id="7B2e6sJQHzPaA60l6zBj-15" value="e-mail/telegram/sms&lt;br&gt;&lt;div&gt;alert notification&lt;/div&gt;" style="text;html=1;align=center;verticalAlign=middle;resizable=0;points=[];autosize=1;strokeColor=none;fillColor=none;" vertex="1" parent="WIyWlLk6GJQsqaUBKTNV-1">
          <mxGeometry x="399" y="559" width="130" height="40" as="geometry" />
        </mxCell>
        <mxCell id="7B2e6sJQHzPaA60l6zBj-16" value="First autojob Job" style="text;html=1;align=center;verticalAlign=middle;resizable=0;points=[];autosize=1;strokeColor=none;fillColor=none;" vertex="1" parent="WIyWlLk6GJQsqaUBKTNV-1">
          <mxGeometry x="435" y="320" width="110" height="30" as="geometry" />
        </mxCell>
        <mxCell id="7B2e6sJQHzPaA60l6zBj-17" value="Second manual run" style="text;html=1;align=center;verticalAlign=middle;resizable=0;points=[];autosize=1;strokeColor=none;fillColor=none;" vertex="1" parent="WIyWlLk6GJQsqaUBKTNV-1">
          <mxGeometry x="650" y="320" width="130" height="30" as="geometry" />
        </mxCell>
        <mxCell id="7B2e6sJQHzPaA60l6zBj-18" value="&lt;div&gt;1. Docker install/configure&lt;/div&gt;&lt;div&gt;2.Postgre docker image install/configure&lt;br&gt;&lt;/div&gt;3. Nginx docker image install/configure + &lt;br&gt;Handler syn test nginx -t" style="text;html=1;align=center;verticalAlign=middle;resizable=0;points=[];autosize=1;strokeColor=none;fillColor=none;" vertex="1" parent="WIyWlLk6GJQsqaUBKTNV-1">
          <mxGeometry x="174" y="420" width="240" height="70" as="geometry" />
        </mxCell>
      </root>
    </mxGraphModel>
  </diagram>
</mxfile>
